<?xml version="1.0" encoding="utf-8"?>
<!-- Generator: Adobe Illustrator 28.2.0, SVG Export Plug-In . SVG Version: 6.00 Build 0)  -->
<svg version="1.1" id="Layer_1" xmlns="http://www.w3.org/2000/svg" xmlns:xlink="http://www.w3.org/1999/xlink" x="0px" y="0px"
	 viewBox="0 0 100 73" style="enable-background:new 0 0 100 73;" xml:space="preserve">
<style type="text/css">
	.st0{fill:#F39C12;}
</style>
<path class="st0" d="M99,1.3c0.6,0.5,0.6,0.5,0.9,1c0.2,2,0.2,2-0.5,2.9c-1,0.9-2.1,1.4-3.3,2c-7.2,3.7-15,8.9-18.6,16.4
	c-0.1,0.2-0.2,0.4-0.3,0.6c0.2,0,0.3,0,0.5,0.1c7.4,1.2,13.5,4,18.1,10.2c3.8,5.8,5.1,12.3,3.9,19.1c-1.5,6.2-5.2,11.6-10.5,15
	c-5.7,3.4-12.2,4.5-18.7,3c-6.4-1.8-11.6-5.6-15.1-11.3c-4.4-7.8-3.4-18-1.1-26.3c3.3-11.4,10.5-20.6,20.8-26.4
	c6.2-3.4,12.8-5.2,19.7-6.4c0.5-0.1,0.5-0.1,1-0.2C96.8,0.8,97.8,0.7,99,1.3z"/>
<path class="st0" d="M47.2,1.5c0.7,1,0.7,1.6,0.8,2.7c-0.3,1-1.1,1.5-2,2c-0.5,0.3-1.1,0.6-1.6,0.8C37,10.8,27.9,16.4,25,24.5
	c0.4,0,0.4,0,0.9,0.1C31,25,35.4,26.7,39.4,30c0.2,0.1,0.3,0.3,0.5,0.4c4.2,3.4,7,9,7.8,14.3c0.3,3.9,0.3,7.9-1.1,11.6
	c-0.1,0.3-0.2,0.7-0.4,1c-2.3,5.7-6.8,10.3-12.4,12.9c-6,2.5-12.7,2.7-18.8,0.4C9,68.1,4.6,63.5,1.9,57.5c-3.7-8.9-1.6-20.2,2-28.9
	C8.8,17.4,17.5,9.3,28.9,4.8C43.6-0.9,43.6-0.9,47.2,1.5z"/>
</svg>
